1316f0df8a8afb34b15218149bb29252 *tests/data/fate/segafilm-cinepak-mux.film_cpk
173220 tests/data/fate/segafilm-cinepak-mux.film_cpk
#tb 0: 1/5
#media_type 0: video
#codec_id 0: cinepak
#dimensions 0: 100x75
#sar 0: 0/1
0,          0,          0,        1,     1222, 0x71c12b5f
0,          1,          1,        1,     1126, 0x758fabe5, F=0x0
0,          2,          2,        1,     1138, 0xf28daaf9, F=0x0
0,          3,          3,        1,     1130, 0x08d1fd4e, F=0x0
0,          4,          4,        1,     1118, 0x33351228, F=0x0
0,          5,          5,        1,     1130, 0x6e101ed2, F=0x0
0,          6,          6,        1,     1122, 0x39d225ac, F=0x0
0,          7,          7,        1,     1126, 0x32ae4cb6, F=0x0
0,          8,          8,        1,     1126, 0xa3ac5a10, F=0x0
0,          9,          9,        1,     1126, 0x66185561, F=0x0
0,         10,         10,        1,     1134, 0x2bf85f4e, F=0x0
0,         11,         11,        1,     1134, 0xe4db7b64, F=0x0
0,         12,         12,        1,     1130, 0x87e9793e, F=0x0
0,         13,         13,        1,     1118, 0x8d346c2e, F=0x0
0,         14,         14,        1,     1126, 0x447d6abb, F=0x0
0,         15,         15,        1,     1130, 0x090c763a, F=0x0
0,         16,         16,        1,     1134, 0x11ef80f1, F=0x0
0,         17,         17,        1,     1126, 0xe9b68fc3, F=0x0
0,         18,         18,        1,     1126, 0x89c696da, F=0x0
0,         19,         19,        1,     1114, 0xe6d1a98e, F=0x0
0,         20,         20,        1,     1126, 0xd35daee7, F=0x0
0,         21,         21,        1,     1114, 0x25b1a557, F=0x0
0,         22,         22,        1,     1130, 0x17e69d3e, F=0x0
0,         23,         23,        1,     1126, 0x8dc88007, F=0x0
0,         24,         24,        1,     1130, 0x577b7137, F=0x0
0,         25,         25,        1,     1130, 0x4b887d7e, F=0x0
0,         26,         26,        1,     1134, 0x144a85b3, F=0x0
0,         27,         27,        1,     1126, 0xb556722e, F=0x0
0,         28,         28,        1,     1130, 0xe3db9173, F=0x0
0,         29,         29,        1,     1138, 0x6e127c53, F=0x0
0,         30,         30,        1,     1126, 0x0cbf77ad, F=0x0
0,         31,         31,        1,     1134, 0x110c8f29, F=0x0
0,         32,         32,        1,     1134, 0xd9e38471, F=0x0
0,         33,         33,        1,     1138, 0xb177947e, F=0x0
0,         34,         34,        1,     1130, 0x9a9da5f9, F=0x0
0,         35,         35,        1,     1102, 0x65e5d1b2, F=0x0
0,         36,         36,        1,     1098, 0x9d020bdb, F=0x0
0,         37,         37,        1,     1098, 0xbbcb2c90, F=0x0
0,         38,         38,        1,     1122, 0x0b6eb28a, F=0x0
0,         39,         39,        1,     1130, 0x86dec1ac, F=0x0
0,         40,         40,        1,     1126, 0x2926b05c, F=0x0
0,         41,         41,        1,     1126, 0x37daa041, F=0x0
0,         42,         42,        1,     1130, 0xb2859897, F=0x0
0,         43,         43,        1,     1130, 0xdfdaa4a7, F=0x0
0,         44,         44,        1,     1126, 0xd83fa84e, F=0x0
0,         45,         45,        1,     1126, 0x6738a41d, F=0x0
0,         46,         46,        1,     1122, 0xbff7b2ff, F=0x0
0,         47,         47,        1,     1126, 0x0bccc0a3, F=0x0
0,         48,         48,        1,     1126, 0x4083cc7a, F=0x0
0,         49,         49,        1,     1126, 0x7d5bd199, F=0x0
0,         50,         50,        1,     1126, 0xf1a6d890, F=0x0
0,         51,         51,        1,     1118, 0xad19b80a, F=0x0
0,         52,         52,        1,     1126, 0x8a61d10e, F=0x0
0,         53,         53,        1,     1118, 0xdafdd4f3, F=0x0
0,         54,         54,        1,     1122, 0xd171d3b4, F=0x0
0,         55,         55,        1,     1118, 0xf78adab4, F=0x0
0,         56,         56,        1,     1122, 0x9e2ad511, F=0x0
0,         57,         57,        1,     1126, 0x065a94b0, F=0x0
0,         58,         58,        1,     1130, 0x2c31a378, F=0x0
0,         59,         59,        1,     1122, 0xe0248cbc, F=0x0
0,         60,         60,        1,     1370, 0x731b081a, F=0x0
0,         61,         61,        1,     1126, 0x71f4e747, F=0x0
0,         62,         62,        1,     1126, 0x5597ec42, F=0x0
0,         63,         63,        1,     1126, 0xdf25e98a, F=0x0
0,         64,         64,        1,     1126, 0x70b20e6d, F=0x0
0,         65,         65,        1,     1130, 0x80291c49
0,         66,         66,        1,     1130, 0x36312605
0,         67,         67,        1,     1130, 0x340c32f8, F=0x0
0,         68,         68,        1,     1138, 0xe39d4da6, F=0x0
0,         69,         69,        1,     1162, 0x926055c2, F=0x0
0,         70,         70,        1,     1150, 0x23636430, F=0x0
0,         71,         71,        1,     1162, 0xa9585bf0, F=0x0
0,         72,         72,        1,     1182, 0x31aa69f1, F=0x0
0,         73,         73,        1,     1138, 0x01fe67d0, F=0x0
0,         74,         74,        1,     1186, 0x19e27b72, F=0x0
0,         75,         75,        1,     1166, 0xc6308226, F=0x0
0,         76,         76,        1,     1158, 0xef1d92de, F=0x0
0,         77,         77,        1,     1178, 0xf330cc25, F=0x0
0,         78,         78,        1,     1182, 0xa0aed70e, F=0x0
0,         79,         79,        1,     1126, 0xb572d975, F=0x0
0,         80,         80,        1,     1162, 0x824bdf60, F=0x0
0,         81,         81,        1,     1110, 0x0f4be7ec, F=0x0
0,         82,         82,        1,     1118, 0x87fcd9bf, F=0x0
0,         83,         83,        1,     1118, 0x33c0d913, F=0x0
0,         84,         84,        1,     1106, 0x6bf1d24a, F=0x0
0,         85,         85,        1,     1130, 0xf9d8d39b, F=0x0
0,         86,         86,        1,     1130, 0x2c98d6c7, F=0x0
0,         87,         87,        1,     1126, 0xd6dbc72e, F=0x0
0,         88,         88,        1,     1126, 0xb28cc81b, F=0x0
0,         89,         89,        1,     1122, 0x6d6dba62, F=0x0
0,         90,         90,        1,     1126, 0x0e15bf6c, F=0x0
0,         91,         91,        1,     1118, 0x3bf8b739, F=0x0
0,         92,         92,        1,     1130, 0xa85ad726, F=0x0
0,         93,         93,        1,     1126, 0x167fd993, F=0x0
0,         94,         94,        1,     1118, 0x0f6ad267, F=0x0
0,         95,         95,        1,     1114, 0x9ad0dfda, F=0x0
0,         96,         96,        1,     1122, 0x2f7dde25, F=0x0
0,         97,         97,        1,     1122, 0xb4e2e1bf, F=0x0
0,         98,         98,        1,     1126, 0x6443e4dd, F=0x0
0,         99,         99,        1,     1122, 0x7de1dceb, F=0x0
0,        100,        100,        1,     1094, 0x0422f641, F=0x0
0,        101,        101,        1,     1126, 0x2bf8e36e, F=0x0
0,        102,        102,        1,     1126, 0x6215cc8d, F=0x0
0,        103,        103,        1,     1122, 0xbdd8e81e, F=0x0
0,        104,        104,        1,     1126, 0x5fa4e361, F=0x0
0,        105,        105,        1,     1114, 0x02dedc5a, F=0x0
0,        106,        106,        1,     1122, 0x4807e5ef, F=0x0
0,        107,        107,        1,     1126, 0x9165d802, F=0x0
0,        108,        108,        1,     1114, 0xb389d4a2, F=0x0
0,        109,        109,        1,     1126, 0xbbb4d58e, F=0x0
0,        110,        110,        1,     1106, 0x0f44e337, F=0x0
0,        111,        111,        1,     1106, 0x57bae452, F=0x0
0,        112,        112,        1,     1382, 0x4ef2281a, F=0x0
0,        113,        113,        1,     1126, 0x79dedd9e, F=0x0
0,        114,        114,        1,     1114, 0xfa8bf80f, F=0x0
0,        115,        115,        1,     1110, 0x5f9e122e, F=0x0
0,        116,        116,        1,     1114, 0x85aa480c, F=0x0
0,        117,        117,        1,     1122, 0xf7c87737, F=0x0
0,        118,        118,        1,     1122, 0x2ff57bc7, F=0x0
0,        119,        119,        1,     1134, 0x1723b925, F=0x0
0,        120,        120,        1,     1154, 0x1768acf5
0,        121,        121,        1,     1206, 0xe2f2e7e7, F=0x0
0,        122,        122,        1,     1130, 0x30a0deb4, F=0x0
0,        123,        123,        1,     1130, 0x9d8fdff7, F=0x0
0,        124,        124,        1,     1126, 0xefcbd959, F=0x0
0,        125,        125,        1,     1130, 0xac08d48b, F=0x0
0,        126,        126,        1,     1130, 0xd0c0c1e4, F=0x0
0,        127,        127,        1,     1130, 0x0ecbab42, F=0x0
0,        128,        128,        1,     1130, 0x85ddb0e9, F=0x0
0,        129,        129,        1,     1126, 0xb6c29be4, F=0x0
0,        130,        130,        1,     1130, 0x21e196e0, F=0x0
0,        131,        131,        1,     1130, 0xd4f7a15e, F=0x0
0,        132,        132,        1,     1118, 0x35dbacf7, F=0x0
0,        133,        133,        1,     1126, 0x31a5b4fe, F=0x0
0,        134,        134,        1,     1122, 0x699cbc4b, F=0x0
0,        135,        135,        1,     1114, 0x3446b299, F=0x0
0,        136,        136,        1,     1122, 0xd228ad0a, F=0x0
0,        137,        137,        1,     1118, 0x9161dd42, F=0x0
0,        138,        138,        1,     1122, 0x9055ce23, F=0x0
0,        139,        139,        1,     1114, 0x0d41ddef, F=0x0
0,        140,        140,        1,     1110, 0x9a6ee6d9, F=0x0
0,        141,        141,        1,     1110, 0x88b4fbed, F=0x0
0,        142,        142,        1,     1118, 0x6b4ff2e0, F=0x0
0,        143,        143,        1,     1118, 0x58cae506, F=0x0
0,        144,        144,        1,     1114, 0x2e08fbf8, F=0x0
0,        145,        145,        1,     1110, 0x2329f247, F=0x0
0,        146,        146,        1,     1114, 0x7c56f7bb, F=0x0
0,        147,        147,        1,     1118, 0x10b9f719, F=0x0
0,        148,        148,        1,     1126, 0xda626ba7, F=0x0
0,        149,        149,        1,     1382, 0x33b21846, F=0x0
0,        150,        150,        1,      586, 0x12808f58, F=0x0
0,        151,        151,        1,      190, 0xa9f408c3, F=0x0
